# xmcd CD database file
#
# Track frame offsets:
#	150
#	11340
#	28402
#	44742
#	63142
#	77755
#	96032
#	120490
#	137797
#	153790
#	173502
#	194697
#
# Disc length: 2820 seconds
#
# Revision: 5
# Processed by: cddbd v1.5.1PL0 Copyright (c) Steve Scherf et al.
# Submitted via: CDex 1.51
#
DISCID=960b020c
DTITLE=ASIAN KUNG-FU GENERATION - ソルファ
DYEAR=2004
DGENRE=JPop
TTITLE0=振動覚
TTITLE1=リライト
TTITLE2=君の街まで
TTITLE3=マイワールド
TTITLE4=夜の向こう
TTITLE5=ラストシーン
TTITLE6=サイレン
TTITLE7=Re: Re:
TTITLE8=24時
TTITLE9=真夜中と真昼の夢
TTITLE10=海岸通り
TTITLE11=ループ and ループ
EXTD=YEAR: 2004
EXTT0=
EXTT1=
EXTT2=
EXTT3=
EXTT4=
EXTT5=
EXTT6=
EXTT7=
EXTT8=
EXTT9=
EXTT10=
EXTT11=
PLAYORDER=
